<mxfile host="65bd71144e">
    <diagram id="UCgfB4eMcKTBTghjKcvr" name="Page-1">
        <mxGraphModel dx="1566" dy="913" grid="1" gridSize="10" guides="1" tooltips="1" connect="1" arrows="1" fold="1" page="1" pageScale="1" pageWidth="1100" pageHeight="850" math="0" shadow="0">
            <root>
                <mxCell id="0"/>
                <mxCell id="1" parent="0"/>
                <mxCell id="3" value="" style="rounded=1;whiteSpace=wrap;html=1;" parent="1" vertex="1">
                    <mxGeometry x="240" y="170" width="450" height="420" as="geometry"/>
                </mxCell>
                <mxCell id="6" value="&lt;b&gt;&lt;font style=&quot;font-size: 20px;&quot;&gt;ORCH (Orchestrator)&lt;/font&gt;&lt;/b&gt;" style="text;html=1;strokeColor=none;fillColor=none;align=center;verticalAlign=middle;whiteSpace=wrap;rounded=0;fontStyle=0" vertex="1" parent="1">
                    <mxGeometry x="240" y="170" width="450" height="40" as="geometry"/>
                </mxCell>
                <mxCell id="7" value="" style="rounded=1;whiteSpace=wrap;html=1;" vertex="1" parent="1">
                    <mxGeometry x="890" y="170" width="450" height="420" as="geometry"/>
                </mxCell>
                <mxCell id="11" value="&lt;b&gt;&lt;font style=&quot;font-size: 20px;&quot;&gt;PSTAT (Action server)&lt;/font&gt;&lt;/b&gt;" style="text;html=1;strokeColor=none;fillColor=none;align=center;verticalAlign=middle;whiteSpace=wrap;rounded=0;" vertex="1" parent="1">
                    <mxGeometry x="890" y="170" width="450" height="40" as="geometry"/>
                </mxCell>
                <mxCell id="38" value="POST request" style="edgeStyle=none;html=1;exitX=1;exitY=0.5;exitDx=0;exitDy=0;entryX=0;entryY=0.5;entryDx=0;entryDy=0;labelBackgroundColor=none;fontSize=10;verticalAlign=top;" edge="1" parent="1" source="14" target="29">
                    <mxGeometry x="-0.0012" relative="1" as="geometry">
                        <mxPoint as="offset"/>
                    </mxGeometry>
                </mxCell>
                <mxCell id="14" value="Driver heartbeat" style="shape=process;whiteSpace=wrap;html=1;backgroundOutline=1;fillColor=#dae8fc;strokeColor=#6c8ebf;" vertex="1" parent="1">
                    <mxGeometry x="510" y="210" width="120" height="60" as="geometry"/>
                </mxCell>
                <mxCell id="39" value="POST request" style="edgeStyle=none;html=1;exitX=1;exitY=0.5;exitDx=0;exitDy=0;entryX=0;entryY=0.5;entryDx=0;entryDy=0;labelBackgroundColor=none;fontSize=10;verticalAlign=top;dashed=1;" edge="1" parent="1" source="15" target="28">
                    <mxGeometry relative="1" as="geometry">
                        <mxPoint as="offset"/>
                    </mxGeometry>
                </mxCell>
                <mxCell id="15" value="Dispatch loop" style="shape=process;whiteSpace=wrap;html=1;backgroundOutline=1;fillColor=#dae8fc;strokeColor=#6c8ebf;" vertex="1" parent="1">
                    <mxGeometry x="510" y="290" width="120" height="60" as="geometry"/>
                </mxCell>
                <mxCell id="47" style="edgeStyle=none;html=1;exitX=1;exitY=0.5;exitDx=0;exitDy=0;exitPerimeter=0;labelBackgroundColor=none;fontSize=10;" edge="1" parent="1" source="17" target="15">
                    <mxGeometry relative="1" as="geometry"/>
                </mxCell>
                <mxCell id="17" value="Queues" style="strokeWidth=1;html=1;shape=mxgraph.flowchart.multi-document;whiteSpace=wrap;fillColor=#e1d5e7;strokeColor=#9673a6;" vertex="1" parent="1">
                    <mxGeometry x="300" y="290" width="120" height="60" as="geometry"/>
                </mxCell>
                <mxCell id="25" value="Gamry driver&lt;br&gt;instance" style="rounded=1;whiteSpace=wrap;html=1;strokeWidth=1;fillColor=#f8cecc;strokeColor=#b85450;" vertex="1" parent="1">
                    <mxGeometry x="1055" y="470" width="120" height="60" as="geometry"/>
                </mxCell>
                <mxCell id="46" value="Active action instance" style="rounded=1;whiteSpace=wrap;html=1;strokeWidth=1;verticalAlign=top;fillColor=#d5e8d4;strokeColor=#82b366;dashed=1;" vertex="1" parent="1">
                    <mxGeometry x="1025" y="260" width="180" height="120" as="geometry"/>
                </mxCell>
                <mxCell id="43" value="connect" style="edgeStyle=none;html=1;exitX=0.25;exitY=1;exitDx=0;exitDy=0;entryX=0.25;entryY=0;entryDx=0;entryDy=0;labelBackgroundColor=none;fontSize=10;horizontal=0;verticalAlign=bottom;" edge="1" parent="1" source="26" target="25">
                    <mxGeometry relative="1" as="geometry"/>
                </mxCell>
                <mxCell id="44" value="measure" style="edgeStyle=none;html=1;exitX=0.5;exitY=1;exitDx=0;exitDy=0;entryX=0.5;entryY=0;entryDx=0;entryDy=0;labelBackgroundColor=none;fontSize=10;horizontal=0;verticalAlign=bottom;" edge="1" parent="1" source="26" target="25">
                    <mxGeometry relative="1" as="geometry"/>
                </mxCell>
                <mxCell id="45" value="disconnect" style="edgeStyle=none;html=1;exitX=0.75;exitY=1;exitDx=0;exitDy=0;entryX=0.75;entryY=0;entryDx=0;entryDy=0;labelBackgroundColor=none;fontSize=10;horizontal=0;verticalAlign=bottom;" edge="1" parent="1" source="26" target="25">
                    <mxGeometry relative="1" as="geometry"/>
                </mxCell>
                <mxCell id="26" value="run_CV&lt;br&gt;executor" style="shape=process;whiteSpace=wrap;html=1;backgroundOutline=1;strokeWidth=1;fillColor=#dae8fc;strokeColor=#6c8ebf;" vertex="1" parent="1">
                    <mxGeometry x="1055" y="290" width="120" height="60" as="geometry"/>
                </mxCell>
                <mxCell id="41" style="edgeStyle=none;html=1;exitX=1;exitY=0.5;exitDx=0;exitDy=0;dashed=1;labelBackgroundColor=none;fontSize=10;entryX=0;entryY=0.5;entryDx=0;entryDy=0;" edge="1" parent="1" source="28" target="46">
                    <mxGeometry relative="1" as="geometry"/>
                </mxCell>
                <mxCell id="28" value="/PSTAT/run_CV&lt;br&gt;endpoint" style="rounded=0;whiteSpace=wrap;html=1;strokeWidth=1;fillColor=#fff2cc;strokeColor=#d6b656;" vertex="1" parent="1">
                    <mxGeometry x="830" y="300" width="120" height="40" as="geometry"/>
                </mxCell>
                <mxCell id="42" style="edgeStyle=none;html=1;exitX=1;exitY=0.5;exitDx=0;exitDy=0;entryX=0;entryY=0.5;entryDx=0;entryDy=0;labelBackgroundColor=none;fontSize=10;" edge="1" parent="1" source="29" target="25">
                    <mxGeometry relative="1" as="geometry">
                        <Array as="points">
                            <mxPoint x="990" y="240"/>
                            <mxPoint x="990" y="500"/>
                        </Array>
                    </mxGeometry>
                </mxCell>
                <mxCell id="29" value="/get_status&lt;br&gt;endpoint" style="rounded=0;whiteSpace=wrap;html=1;strokeWidth=1;fillColor=#fff2cc;strokeColor=#d6b656;" vertex="1" parent="1">
                    <mxGeometry x="830" y="220" width="120" height="40" as="geometry"/>
                </mxCell>
                <mxCell id="48" value="HEAD request" style="edgeStyle=none;html=1;exitX=1;exitY=0.5;exitDx=0;exitDy=0;entryX=0.25;entryY=1;entryDx=0;entryDy=0;labelBackgroundColor=none;fontSize=10;dashed=1;verticalAlign=top;" edge="1" parent="1" source="30" target="28">
                    <mxGeometry x="-0.322" relative="1" as="geometry">
                        <Array as="points">
                            <mxPoint x="860" y="405"/>
                        </Array>
                        <mxPoint as="offset"/>
                    </mxGeometry>
                </mxCell>
                <mxCell id="30" value="Active action heartbeat" style="shape=process;whiteSpace=wrap;html=1;backgroundOutline=1;fillColor=#dae8fc;strokeColor=#6c8ebf;" vertex="1" parent="1">
                    <mxGeometry x="510" y="375" width="120" height="60" as="geometry"/>
                </mxCell>
                <UserObject label="LOGS/PSTAT.log" id="31">
                    <mxCell style="shape=cylinder3;whiteSpace=wrap;html=1;boundedLbl=1;backgroundOutline=1;size=15;strokeWidth=1;" vertex="1" parent="1">
                        <mxGeometry x="1055" y="690" width="120" height="80" as="geometry"/>
                    </mxCell>
                </UserObject>
                <mxCell id="32" value="LOGS/ORCH.log" style="shape=cylinder3;whiteSpace=wrap;html=1;boundedLbl=1;backgroundOutline=1;size=15;strokeWidth=1;" vertex="1" parent="1">
                    <mxGeometry x="410" y="690" width="110" height="80" as="geometry"/>
                </mxCell>
                <mxCell id="37" value="TimedRotatingFileHandler" style="edgeStyle=none;html=1;exitX=0.5;exitY=1;exitDx=0;exitDy=0;entryX=0.5;entryY=0;entryDx=0;entryDy=0;entryPerimeter=0;labelBackgroundColor=default;fontSize=10;" edge="1" parent="1" source="33" target="31">
                    <mxGeometry relative="1" as="geometry"/>
                </mxCell>
                <mxCell id="33" value="PSTAT logger instance" style="rounded=1;whiteSpace=wrap;html=1;strokeWidth=1;fillColor=#f8cecc;strokeColor=#b85450;" vertex="1" parent="1">
                    <mxGeometry x="1055" y="560" width="120" height="60" as="geometry"/>
                </mxCell>
                <mxCell id="35" value="&lt;font style=&quot;font-size: 10px;&quot;&gt;TimedRotatingFileHandler&lt;/font&gt;" style="edgeStyle=none;html=1;exitX=0.5;exitY=1;exitDx=0;exitDy=0;entryX=0.5;entryY=0;entryDx=0;entryDy=0;entryPerimeter=0;" edge="1" parent="1" source="34" target="32">
                    <mxGeometry relative="1" as="geometry">
                        <mxPoint as="offset"/>
                    </mxGeometry>
                </mxCell>
                <mxCell id="34" value="ORCH logger instance" style="rounded=1;whiteSpace=wrap;html=1;strokeWidth=1;fillColor=#f8cecc;strokeColor=#b85450;" vertex="1" parent="1">
                    <mxGeometry x="405" y="560" width="120" height="60" as="geometry"/>
                </mxCell>
                <mxCell id="52" value="&lt;h1&gt;&lt;font style=&quot;font-size: 16px;&quot;&gt;Driver heartbeat&lt;/font&gt;&lt;br&gt;&lt;/h1&gt;&lt;p&gt;The 'driver heartbeat' is an async coroutine running on ORCH which issues a /get_status POST request every 10 seconds to all action servers defined in the launch config, regardless of ORCH and action server state.&lt;br&gt;&lt;/p&gt;" style="text;html=1;strokeColor=#666666;fillColor=#f5f5f5;spacing=5;spacingTop=-20;whiteSpace=wrap;overflow=hidden;rounded=0;strokeWidth=1;fontSize=10;labelBackgroundColor=none;fontColor=#333333;" vertex="1" parent="1">
                    <mxGeometry x="490" y="30" width="190" height="120" as="geometry"/>
                </mxCell>
                <mxCell id="53" value="&lt;h1&gt;&lt;font style=&quot;font-size: 16px;&quot;&gt;Active action heartbeat&lt;/font&gt;&lt;br&gt;&lt;/h1&gt;&lt;p&gt;This coroutine makes a lightweight HEAD request to the running action endpoint every 10 seconds, which checks if the action server is still responding to API requests.&lt;br&gt;&lt;/p&gt;" style="text;html=1;strokeColor=#666666;fillColor=#f5f5f5;spacing=5;spacingTop=-20;whiteSpace=wrap;overflow=hidden;rounded=0;strokeWidth=1;fontSize=10;labelBackgroundColor=none;fontColor=#333333;" vertex="1" parent="1">
                    <mxGeometry x="30" y="420" width="190" height="120" as="geometry"/>
                </mxCell>
                <mxCell id="54" value="&lt;h1&gt;&lt;font style=&quot;font-size: 16px;&quot;&gt;Queues&lt;/font&gt;&lt;br&gt;&lt;/h1&gt;&lt;p&gt;Sequence, experiment, and action queues are instances of 'zdeque', a &lt;br&gt;custom implementation of collections.deque which wraps queue &lt;br&gt;insert/append/appendleft/pop/popleft methods with zstd compression.&lt;/p&gt;" style="text;html=1;strokeColor=#666666;fillColor=#f5f5f5;spacing=5;spacingTop=-20;whiteSpace=wrap;overflow=hidden;rounded=0;strokeWidth=1;fontSize=10;labelBackgroundColor=none;fontColor=#333333;" vertex="1" parent="1">
                    <mxGeometry x="30" y="270" width="190" height="120" as="geometry"/>
                </mxCell>
                <mxCell id="55" value="&lt;h1&gt;&lt;font style=&quot;font-size: 16px;&quot;&gt;Dispatch loop&lt;/font&gt;&lt;br&gt;&lt;/h1&gt;&lt;p&gt;Serially processes queued actions (actions unpacked from experiment, experiments unpacked from sequence) by checking for action start conditions and sending POST request to respective action servers.&lt;br&gt;&lt;/p&gt;" style="text;html=1;strokeColor=#666666;fillColor=#f5f5f5;spacing=5;spacingTop=-20;whiteSpace=wrap;overflow=hidden;rounded=0;strokeWidth=1;fontSize=10;labelBackgroundColor=none;fontColor=#333333;" vertex="1" parent="1">
                    <mxGeometry x="270" y="30" width="190" height="120" as="geometry"/>
                </mxCell>
                <mxCell id="56" value="&lt;h1&gt;&lt;font style=&quot;font-size: 16px;&quot;&gt;Logger instance&lt;/font&gt;&lt;br&gt;&lt;/h1&gt;&lt;p&gt;An instance returned by logging.getLogger() which is created by the server process launch script, then inherited by all modules loaded in the same process.&lt;br&gt;&lt;/p&gt;" style="text;html=1;strokeColor=#666666;fillColor=#f5f5f5;spacing=5;spacingTop=-20;whiteSpace=wrap;overflow=hidden;rounded=0;strokeWidth=1;fontSize=10;labelBackgroundColor=none;fontColor=#333333;" vertex="1" parent="1">
                    <mxGeometry x="190" y="610" width="190" height="120" as="geometry"/>
                </mxCell>
                <mxCell id="57" value="&lt;h1&gt;&lt;font style=&quot;font-size: 16px;&quot;&gt;Endpoint&lt;/font&gt;&lt;br&gt;&lt;/h1&gt;&lt;p&gt;Endpoints are the API methods exposed to action server clients (e.g. ORCH). An action endpoint path is prefixed by the action server name (/PSTAT/) whereas a &quot;private&quot; endpoint path is not. Action endpoints are tracked by ORCH to determine action start conditions.&lt;br&gt;&lt;/p&gt;" style="text;html=1;strokeColor=#666666;fillColor=#f5f5f5;spacing=5;spacingTop=-20;whiteSpace=wrap;overflow=hidden;rounded=0;strokeWidth=1;fontSize=10;labelBackgroundColor=none;fontColor=#333333;" vertex="1" parent="1">
                    <mxGeometry x="830" y="30" width="210" height="120" as="geometry"/>
                </mxCell>
                <mxCell id="58" value="&lt;h1&gt;&lt;font style=&quot;font-size: 16px;&quot;&gt;Active action instance&lt;/font&gt;&lt;br&gt;&lt;/h1&gt;&lt;p&gt;The active action instance handles file writing, pushes data and status messages to broadcast queues, and spawns the &quot;action loop&quot; coroutine for processing an Executor task.&lt;br&gt;&lt;/p&gt;" style="text;html=1;strokeColor=#666666;fillColor=#f5f5f5;spacing=5;spacingTop=-20;whiteSpace=wrap;overflow=hidden;rounded=0;strokeWidth=1;fontSize=10;labelBackgroundColor=none;fontColor=#333333;" vertex="1" parent="1">
                    <mxGeometry x="1070" y="30" width="190" height="120" as="geometry"/>
                </mxCell>
                <mxCell id="59" value="&lt;h1&gt;&lt;font style=&quot;font-size: 16px;&quot;&gt;Executor&lt;/font&gt;&lt;br&gt;&lt;/h1&gt;&lt;p&gt;An execution base class containing setup, start, cleanup, and manual stop methods which use driver functions to perform an operation.&lt;br&gt;&lt;/p&gt;" style="text;html=1;strokeColor=#666666;fillColor=#f5f5f5;spacing=5;spacingTop=-20;whiteSpace=wrap;overflow=hidden;rounded=0;strokeWidth=1;fontSize=10;labelBackgroundColor=none;fontColor=#333333;" vertex="1" parent="1">
                    <mxGeometry x="1360" y="255" width="190" height="120" as="geometry"/>
                </mxCell>
                <mxCell id="60" value="&lt;h1&gt;&lt;font style=&quot;font-size: 16px;&quot;&gt;Driver instance&lt;/font&gt;&lt;br&gt;&lt;/h1&gt;&lt;p&gt;An instance of a subclass of HelaoDriver, an abstract base class which defines the minimum functionality needed by external driver consumers (e.g. get_status endpoint, executors).&lt;br&gt;&lt;/p&gt;" style="text;html=1;strokeColor=#666666;fillColor=#f5f5f5;spacing=5;spacingTop=-20;whiteSpace=wrap;overflow=hidden;rounded=0;strokeWidth=1;fontSize=10;labelBackgroundColor=none;fontColor=#333333;" vertex="1" parent="1">
                    <mxGeometry x="1360" y="470" width="190" height="120" as="geometry"/>
                </mxCell>
            </root>
        </mxGraphModel>
    </diagram>
</mxfile>